<svg id="svg" version="1.1" xmlns="http://www.w3.org/2000/svg" xmlns:xlink="http://www.w3.org/1999/xlink" width="600" height="600" viewBox="0, 0, 400,400"><g id="svgg"><path id="path0" d="M183.000 0.579 C 86.448 10.930,34.584 122.654,88.708 203.701 C 144.145 286.716,269.607 279.746,314.655 191.149 C 355.867 110.096,307.106 15.850,216.250 0.950 C 212.098 0.269,188.361 0.004,183.000 0.579 M211.750 11.765 C 312.216 23.511,354.922 145.635,283.528 217.028 C 212.132 288.425,90.052 245.735,78.262 145.250 C 69.297 68.838,135.309 2.827,211.750 11.765 M195.250 40.670 C 179.316 50.113,176.053 52.010,175.202 52.325 C 174.678 52.519,174.137 52.821,174.000 52.997 C 173.688 53.396,168.336 56.589,148.134 68.424 L 145.017 70.250 145.020 133.000 L 145.022 195.750 150.511 198.986 C 153.530 200.766,156.000 202.360,156.000 202.528 C 156.000 202.696,156.281 202.833,156.625 202.834 C 156.969 202.834,159.500 204.183,162.250 205.832 C 165.000 207.481,169.838 210.356,173.000 212.220 C 176.162 214.085,178.888 215.829,179.056 216.098 C 179.224 216.366,179.562 216.564,179.806 216.539 C 180.050 216.513,180.603 216.775,181.035 217.121 C 181.467 217.467,182.073 217.802,182.381 217.865 C 182.689 217.929,184.586 218.973,186.596 220.186 C 196.065 225.902,200.725 228.446,200.977 228.037 C 201.249 227.596,204.649 225.533,218.900 217.158 C 222.943 214.782,231.200 209.924,237.250 206.362 C 243.300 202.800,248.889 199.518,249.671 199.068 C 250.452 198.618,252.084 197.636,253.296 196.886 L 255.500 195.522 255.500 133.072 C 255.500 83.721,255.369 70.514,254.875 70.106 C 254.531 69.822,244.807 64.047,233.266 57.272 C 221.724 50.498,212.162 44.796,212.016 44.603 C 211.870 44.409,211.492 44.202,211.177 44.142 C 210.862 44.083,208.356 42.677,205.609 41.017 C 199.618 37.398,200.711 37.434,195.250 40.670 M215.250 58.986 C 220.200 62.080,224.388 64.832,224.556 65.099 C 224.724 65.367,225.019 65.544,225.210 65.494 C 225.720 65.361,239.000 73.564,239.000 74.012 C 239.000 74.220,236.581 75.795,233.625 77.511 C 225.291 82.349,206.590 93.423,203.218 95.516 L 200.187 97.397 196.468 95.136 C 194.423 93.892,192.612 92.658,192.444 92.394 C 192.276 92.131,192.035 91.990,191.908 92.082 C 191.781 92.175,187.081 89.531,181.464 86.208 C 175.846 82.884,169.056 78.883,166.375 77.316 C 163.694 75.749,161.500 74.263,161.500 74.014 C 161.500 73.569,169.813 68.220,171.428 67.626 C 171.880 67.459,172.363 67.170,172.500 66.984 C 172.917 66.418,181.000 61.472,181.000 61.782 C 181.000 61.941,181.326 61.745,181.724 61.347 C 182.123 60.949,185.441 58.766,189.099 56.498 C 192.757 54.229,196.738 51.748,197.946 50.985 L 200.143 49.598 203.196 51.478 C 204.876 52.512,210.300 55.891,215.250 58.986 M181.642 98.893 C 185.983 101.499,189.454 103.712,189.356 103.811 C 189.137 104.030,182.409 108.134,176.000 111.958 C 170.199 115.419,167.915 116.804,160.970 121.073 C 157.997 122.901,155.437 124.270,155.282 124.115 C 154.913 123.746,154.914 83.753,155.283 83.384 C 155.439 83.228,159.658 85.588,164.658 88.627 C 169.659 91.667,177.302 96.287,181.642 98.893 M245.000 103.710 L 245.000 124.420 230.875 115.890 C 211.698 104.309,212.024 104.500,211.436 104.500 C 209.861 104.500,212.557 102.618,224.519 95.365 C 231.796 90.952,239.325 86.381,241.250 85.207 C 243.175 84.032,244.806 83.055,244.875 83.036 C 244.944 83.016,245.000 92.320,245.000 103.710 M195.000 133.484 C 195.000 151.487,194.909 153.934,194.250 153.681 C 193.838 153.523,193.500 153.218,193.500 153.005 C 193.500 152.791,193.075 152.506,192.556 152.370 C 191.332 152.050,169.865 139.012,169.383 138.295 C 169.181 137.995,169.012 137.914,169.008 138.114 C 169.003 138.315,167.302 137.447,165.226 136.187 C 163.150 134.927,161.525 133.674,161.615 133.404 C 161.706 133.133,166.498 130.051,172.265 126.553 C 178.032 123.056,185.338 118.596,188.500 116.642 C 191.662 114.688,194.419 113.069,194.625 113.045 C 194.831 113.020,195.000 122.218,195.000 133.484 M216.066 119.287 C 221.392 122.511,228.731 126.938,232.375 129.125 C 240.063 133.738,239.809 133.306,236.125 135.505 C 234.544 136.449,231.726 138.185,229.864 139.364 C 228.002 140.543,226.202 141.562,225.864 141.629 C 225.526 141.695,225.137 141.889,225.000 142.059 C 224.650 142.492,205.684 154.000,205.320 154.000 C 205.157 154.000,205.023 144.753,205.023 133.451 C 205.023 116.333,205.137 112.945,205.703 113.163 C 206.077 113.306,210.740 116.062,216.066 119.287 M159.000 145.133 C 159.000 145.426,159.135 145.532,159.300 145.367 C 159.571 145.096,177.399 155.634,177.998 156.420 C 178.137 156.601,178.554 156.814,178.925 156.892 C 179.296 156.970,180.871 157.850,182.425 158.848 C 187.353 162.013,199.921 169.500,200.306 169.500 C 200.510 169.500,203.281 167.892,206.463 165.926 C 214.278 161.099,218.806 158.336,231.750 150.497 C 237.800 146.833,243.256 143.509,243.875 143.110 L 245.000 142.385 244.984 166.317 L 244.967 190.250 239.109 193.726 C 235.886 195.637,231.000 198.584,228.250 200.273 C 213.507 209.330,201.232 216.664,200.491 216.858 C 200.029 216.978,197.311 215.635,194.451 213.873 C 191.590 212.110,185.875 208.630,181.750 206.140 C 160.612 193.375,155.719 190.347,155.383 189.823 C 154.951 189.150,154.862 143.304,155.292 142.875 C 155.698 142.468,159.000 144.479,159.000 145.133 M252.862 291.876 C 252.426 292.358,251.998 293.764,251.910 295.001 L 251.750 297.250 248.250 297.207 C 246.325 297.183,241.375 296.982,237.250 296.761 C 226.740 296.198,222.613 297.248,217.592 301.762 C 211.705 307.055,209.960 317.536,214.385 321.017 C 218.257 324.063,221.661 319.677,218.750 315.393 C 215.963 311.291,217.865 306.271,223.065 304.004 C 225.541 302.925,234.000 301.873,234.000 302.645 C 234.000 303.303,230.791 317.024,228.773 325.000 C 226.318 334.697,225.709 335.715,222.001 336.308 C 220.347 336.572,220.004 336.845,219.725 338.115 C 219.211 340.455,220.137 340.965,224.000 340.467 C 225.898 340.223,229.110 340.253,231.723 340.540 C 238.723 341.310,240.989 340.743,241.648 338.060 C 242.133 336.087,240.969 335.391,238.219 336.007 C 233.181 337.136,233.241 337.980,237.198 321.815 C 238.957 314.629,240.674 307.488,241.012 305.947 L 241.627 303.143 246.490 302.847 C 254.481 302.360,258.500 299.841,258.500 295.320 C 258.500 291.769,254.932 289.589,252.862 291.876 M118.718 295.276 C 118.132 295.686,115.328 296.236,112.233 296.548 C 104.227 297.353,99.775 299.248,97.051 303.009 C 93.421 308.020,94.463 314.924,98.773 314.413 C 101.124 314.135,102.170 312.151,101.429 309.381 C 100.369 305.414,102.365 303.118,107.865 301.976 C 112.306 301.054,112.332 301.265,108.454 306.750 C 106.509 309.500,102.185 316.013,98.845 321.224 C 87.490 338.936,84.809 341.726,79.664 341.188 C 76.137 340.820,75.000 341.575,75.000 344.286 C 75.000 347.139,76.473 348.150,80.276 347.908 C 85.807 347.556,90.371 343.296,98.245 331.134 L 100.208 328.103 104.888 327.752 C 107.462 327.559,109.699 327.532,109.859 327.692 C 110.250 328.083,109.164 334.510,108.267 337.115 C 107.288 339.954,107.857 340.547,111.445 340.429 C 112.988 340.378,115.863 340.507,117.834 340.715 C 122.319 341.188,123.337 340.879,123.769 338.915 C 124.204 336.935,123.542 336.517,119.958 336.508 C 116.459 336.498,116.628 336.759,117.138 332.145 C 118.373 320.970,120.624 303.720,121.355 299.837 C 122.344 294.575,121.587 293.265,118.718 295.276 M193.750 295.694 C 189.087 297.729,185.327 305.519,182.500 319.000 C 181.894 321.887,181.269 324.463,181.110 324.722 C 180.574 325.598,174.997 307.986,173.235 299.858 C 172.550 296.697,172.238 296.012,171.571 296.209 C 171.120 296.343,168.907 296.697,166.654 296.996 C 153.640 298.724,148.142 303.348,148.038 312.650 C 147.970 318.771,151.374 322.078,154.413 318.843 C 155.770 317.398,155.776 316.501,154.446 313.894 C 151.748 308.606,155.425 303.845,163.375 302.334 C 165.371 301.955,165.360 301.750,163.723 309.335 C 157.969 335.998,154.790 341.544,148.337 336.176 C 145.112 333.494,141.342 336.411,143.086 340.239 C 145.283 345.061,154.572 344.859,158.766 339.897 C 161.677 336.454,167.991 317.563,167.999 312.275 C 168.002 310.237,168.948 312.521,171.923 321.750 C 178.251 341.374,181.401 346.319,182.909 339.000 C 184.663 330.491,189.695 310.961,191.018 307.531 C 192.973 302.461,194.052 301.305,196.439 301.722 C 201.854 302.668,201.791 302.673,202.956 301.192 C 206.139 297.146,199.504 293.183,193.750 295.694 M377.655 296.924 C 372.696 300.844,365.364 310.191,359.449 320.134 C 357.299 323.749,356.999 324.067,356.990 322.750 C 356.984 321.925,356.651 317.313,356.250 312.500 C 355.849 307.688,355.516 302.371,355.510 300.686 C 355.496 296.526,355.368 296.458,348.479 297.006 C 331.920 298.322,321.800 310.668,329.938 319.625 C 333.457 323.498,337.231 318.780,334.192 314.307 C 330.944 309.527,335.825 303.499,344.004 302.191 L 346.154 301.848 345.801 305.299 C 344.898 314.129,341.523 325.762,338.513 330.420 C 335.701 334.771,334.154 335.626,329.840 335.216 C 324.135 334.673,321.406 339.374,326.036 341.768 C 334.291 346.037,344.347 335.122,348.852 317.000 C 349.183 315.670,349.447 317.766,349.953 325.750 C 350.848 339.878,350.980 340.712,352.349 340.906 C 353.210 341.029,353.685 340.595,354.541 338.906 C 358.363 331.365,369.942 312.276,370.411 312.744 C 370.538 312.871,370.405 313.263,370.115 313.613 C 369.824 313.963,368.759 317.625,367.748 321.750 C 366.736 325.875,365.238 331.588,364.419 334.447 C 362.683 340.500,362.897 341.262,366.126 340.530 C 367.209 340.285,369.716 340.312,372.064 340.596 C 377.679 341.275,379.292 340.915,379.696 338.895 C 380.133 336.708,379.458 336.252,375.752 336.236 C 373.994 336.228,372.432 336.098,372.280 335.947 C 371.925 335.592,379.546 304.917,381.203 300.030 C 383.055 294.569,381.907 293.564,377.655 296.924 M66.329 296.838 C 66.143 297.024,60.537 297.314,53.871 297.483 C 39.896 297.838,38.265 298.282,33.515 303.033 C 26.890 309.658,25.262 322.025,30.625 324.990 C 33.966 326.837,35.931 323.377,34.038 318.978 C 32.213 314.735,32.917 310.872,36.194 307.148 C 38.861 304.118,45.680 300.958,44.875 303.125 C 44.747 303.469,44.355 304.988,44.004 306.500 C 42.686 312.177,38.407 328.845,37.650 331.250 C 36.686 334.315,35.830 335.269,33.250 336.156 C 30.063 337.253,30.234 341.477,33.432 340.649 C 34.157 340.462,38.229 340.295,42.480 340.279 L 50.210 340.250 50.684 338.603 C 51.339 336.325,50.645 335.813,47.081 335.941 L 44.128 336.048 46.314 328.501 C 47.516 324.351,48.500 320.627,48.500 320.227 C 48.500 319.656,49.302 319.500,52.250 319.500 L 56.000 319.500 56.000 320.939 C 56.000 322.660,57.022 323.637,58.590 323.413 C 59.950 323.219,62.384 313.841,61.389 312.625 C 60.454 311.482,57.592 311.842,57.410 313.125 C 57.262 314.167,56.962 314.261,53.332 314.397 C 50.395 314.507,49.506 314.394,49.783 313.947 C 49.986 313.619,50.741 310.853,51.461 307.800 L 52.770 302.250 57.396 302.106 C 63.164 301.927,63.648 302.173,63.705 305.315 C 63.750 307.727,63.766 307.751,65.500 307.895 L 67.250 308.040 68.415 302.995 C 69.335 299.013,69.454 297.797,68.979 297.225 C 68.351 296.468,66.909 296.257,66.329 296.838 M285.000 297.158 C 268.740 301.846,260.510 326.586,271.761 336.956 C 285.048 349.204,306.760 334.632,306.337 313.750 C 306.085 301.323,296.475 293.849,285.000 297.158 M291.900 302.205 C 301.662 307.305,299.455 330.675,288.750 335.565 C 283.948 337.758,279.193 335.643,276.239 330.000 C 275.253 328.117,274.522 317.899,275.248 316.147 C 275.452 315.654,275.677 314.657,275.747 313.932 C 276.523 305.923,285.936 299.090,291.900 302.205 M112.249 314.300 C 111.827 317.298,111.362 320.481,111.218 321.375 L 110.955 323.000 107.227 323.000 C 105.177 323.000,103.500 322.889,103.500 322.753 C 103.500 322.270,112.631 308.464,112.823 308.656 C 112.930 308.763,112.672 311.303,112.249 314.300 M324.036 359.317 C 321.314 362.779,324.768 366.650,328.183 363.964 C 329.627 362.827,330.040 359.740,328.900 358.600 C 327.795 357.495,325.164 357.883,324.036 359.317 M58.664 359.028 C 54.688 360.233,51.753 365.786,49.204 376.927 L 47.790 383.103 46.115 378.177 C 45.193 375.467,43.660 370.226,42.708 366.531 C 41.757 362.835,40.927 359.763,40.864 359.704 C 40.307 359.178,28.936 361.736,27.133 362.792 C 21.353 366.179,19.038 375.536,23.291 378.323 C 25.957 380.070,28.374 377.140,26.791 374.079 C 24.549 369.744,27.161 366.064,33.406 364.754 L 35.063 364.407 34.720 366.328 C 30.940 387.522,26.274 396.900,22.046 391.806 C 20.431 389.860,17.156 391.075,17.239 393.591 C 17.388 398.146,24.864 399.427,29.078 395.620 C 32.172 392.825,37.354 378.434,37.525 372.160 C 37.538 371.659,38.521 374.288,39.709 378.000 C 45.869 397.261,48.090 400.507,49.738 392.656 C 51.340 385.025,54.645 372.201,55.857 368.913 C 57.579 364.242,58.345 363.643,61.542 364.462 C 63.793 365.039,64.155 365.015,65.027 364.226 C 68.225 361.332,63.579 357.537,58.664 359.028 M206.874 360.680 C 198.246 363.914,196.061 372.722,202.229 379.396 C 207.671 385.283,208.558 387.782,206.363 391.039 C 203.083 395.906,196.879 396.527,195.484 392.129 C 193.691 386.473,187.762 386.756,188.686 392.453 C 189.858 399.677,202.842 401.142,209.694 394.823 C 215.674 389.307,215.253 383.765,208.240 375.723 C 203.558 370.352,203.405 367.568,207.649 364.980 C 211.574 362.586,213.720 363.995,213.586 368.877 C 213.490 372.354,213.827 372.978,215.809 372.992 C 216.758 372.999,216.944 372.524,217.608 368.375 C 218.015 365.831,218.512 363.373,218.713 362.912 C 219.649 360.766,210.996 359.134,206.874 360.680 M268.674 371.174 C 267.203 372.645,266.000 373.670,266.000 373.453 C 266.000 373.236,266.225 372.920,266.500 372.750 C 268.623 371.438,265.912 369.211,263.123 369.976 C 259.964 370.843,254.192 375.477,254.682 376.752 C 255.393 378.606,256.944 378.589,258.826 376.708 C 259.831 375.703,260.535 375.189,260.391 375.565 C 259.492 377.911,255.950 393.649,256.184 394.258 C 256.386 394.785,257.238 395.000,259.122 395.000 L 261.775 395.000 263.194 388.875 C 265.255 379.970,267.101 376.931,271.615 375.011 C 275.931 373.175,277.155 371.227,275.214 369.286 C 273.628 367.699,271.548 368.299,268.674 371.174 M85.294 369.430 C 85.148 369.666,83.768 370.007,82.227 370.188 C 74.125 371.141,66.501 380.332,66.500 389.150 C 66.500 395.825,71.361 397.728,76.625 393.112 C 77.422 392.414,77.500 392.433,77.500 393.323 C 77.500 397.187,82.798 396.019,88.749 390.842 C 90.734 389.116,90.741 389.095,89.797 388.052 C 88.575 386.702,88.202 386.727,86.139 388.300 C 85.202 389.016,84.365 389.522,84.280 389.425 C 84.070 389.186,86.599 378.107,87.905 373.549 C 88.489 371.514,88.848 369.658,88.703 369.424 C 88.361 368.870,85.637 368.874,85.294 369.430 M105.750 370.685 C 101.588 372.641,98.700 375.533,99.550 376.894 C 100.493 378.404,101.521 378.283,103.405 376.441 C 105.032 374.850,105.368 374.833,104.531 376.382 C 104.273 376.859,103.611 379.275,103.061 381.750 C 102.510 384.225,101.684 387.881,101.226 389.874 C 100.136 394.614,100.316 395.000,103.619 395.000 L 106.270 395.000 107.423 389.625 C 109.253 381.090,109.793 379.768,112.364 377.504 C 115.288 374.930,115.256 374.327,112.745 384.745 C 110.303 394.879,110.318 395.000,114.052 395.000 C 116.171 395.000,116.510 394.857,116.705 393.875 C 118.715 383.800,120.550 378.786,122.861 377.053 C 123.625 376.480,124.574 375.735,124.970 375.397 C 125.571 374.884,125.629 374.944,125.317 375.756 C 125.112 376.291,124.494 378.421,123.945 380.489 C 123.396 382.558,122.621 385.360,122.223 386.716 C 119.565 395.780,123.839 398.312,130.934 391.876 C 133.214 389.808,133.553 388.331,131.946 387.471 C 131.041 386.987,130.649 387.143,129.160 388.579 L 127.427 390.250 127.790 388.750 C 127.989 387.925,128.575 385.788,129.091 384.000 C 131.947 374.119,132.130 373.157,131.422 371.680 C 130.018 368.751,126.297 369.106,122.553 372.525 C 121.025 373.921,121.000 373.926,121.290 372.768 C 122.296 368.760,116.464 368.800,112.171 372.832 L 110.593 374.314 110.861 372.661 C 111.383 369.444,109.740 368.809,105.750 370.685 M153.279 370.102 C 143.368 372.832,138.212 395.500,147.502 395.500 C 150.686 395.500,159.856 390.267,159.976 388.381 C 160.133 385.929,157.389 385.629,154.462 387.778 C 150.911 390.385,149.294 390.355,149.099 387.681 L 148.948 385.612 152.599 383.788 C 163.677 378.254,164.232 367.085,153.279 370.102 M237.328 370.229 C 229.569 372.996,223.386 389.431,228.267 394.313 C 231.146 397.192,236.727 395.250,243.715 388.940 C 244.352 388.364,243.035 386.000,242.077 386.000 C 241.662 386.000,240.182 386.776,238.787 387.725 C 235.291 390.102,233.628 390.463,233.272 388.924 C 232.669 386.320,233.092 385.669,236.477 384.000 C 240.789 381.874,243.317 379.818,244.519 377.463 C 247.304 372.003,243.392 368.067,237.328 370.229 M293.865 369.802 C 293.699 369.968,291.734 370.309,289.498 370.559 C 281.921 371.406,277.255 376.361,280.914 379.673 C 282.916 381.484,285.288 380.186,284.893 377.495 C 284.648 375.830,285.084 375.297,287.075 374.822 L 288.401 374.506 286.842 377.378 C 284.627 381.459,285.349 395.760,287.818 396.707 C 290.252 397.641,300.697 388.020,303.557 382.210 C 306.675 375.877,306.136 369.500,302.484 369.500 C 300.563 369.500,299.822 370.599,300.214 372.868 C 301.128 378.167,301.119 378.320,299.726 381.165 C 298.974 382.701,296.984 385.363,295.304 387.082 L 292.250 390.206 291.972 388.478 C 291.096 383.042,293.045 375.568,295.810 373.757 C 297.231 372.825,297.341 371.463,296.086 370.327 C 295.133 369.466,294.379 369.287,293.865 369.802 M320.681 370.441 C 315.700 372.751,313.156 376.676,315.652 378.200 C 316.406 378.660,316.850 378.429,318.364 376.787 C 319.360 375.708,319.998 375.258,319.782 375.787 C 317.212 382.098,315.271 393.270,316.490 394.738 C 318.094 396.671,321.449 395.531,325.689 391.615 C 328.320 389.184,328.439 388.770,326.875 387.489 C 325.762 386.577,325.729 386.586,323.819 388.408 C 322.368 389.792,321.955 390.001,322.158 389.250 C 326.789 372.128,326.852 371.829,326.092 370.633 C 325.387 369.522,322.858 369.432,320.681 370.441 M347.918 370.172 C 337.082 374.199,332.755 395.500,342.773 395.500 C 347.795 395.500,355.335 390.599,353.835 388.309 C 352.769 386.682,352.355 386.679,350.256 388.279 C 344.986 392.299,342.098 390.074,343.523 383.093 C 344.988 375.911,346.978 373.703,350.409 375.454 C 353.019 376.785,354.206 376.774,355.481 375.406 C 358.685 371.966,353.236 368.195,347.918 370.172 M375.574 370.048 C 368.431 372.209,361.942 388.789,366.239 393.896 C 368.791 396.929,374.173 395.700,379.735 390.814 C 383.502 387.506,381.733 384.185,377.797 387.176 C 373.391 390.525,371.500 390.635,371.500 387.541 C 371.500 385.559,371.517 385.542,375.512 383.463 C 386.102 377.954,386.153 366.847,375.574 370.048 M155.500 375.544 C 155.500 376.703,153.092 379.462,151.029 380.665 L 149.461 381.580 149.801 380.165 C 151.028 375.066,155.500 371.440,155.500 375.544 M239.344 375.763 C 239.053 377.922,238.832 378.223,236.224 380.018 C 233.547 381.860,233.321 381.229,235.208 377.176 C 237.023 373.278,239.807 372.327,239.344 375.763 M377.700 374.800 C 378.295 376.349,373.185 382.352,372.151 381.318 C 371.787 380.954,373.122 377.000,373.609 377.000 C 373.856 377.000,373.920 376.775,373.750 376.500 C 373.580 376.225,373.679 376.000,373.970 376.000 C 374.262 376.000,374.500 375.681,374.500 375.292 C 374.500 373.957,377.216 373.539,377.700 374.800 M81.500 376.250 C 81.500 376.938,81.262 377.500,80.970 377.500 C 80.679 377.500,80.583 377.730,80.757 378.012 C 81.459 379.147,78.842 386.124,76.981 388.081 C 72.230 393.075,70.341 387.556,74.192 379.932 C 76.381 375.599,81.500 373.020,81.500 376.250 " stroke="none" fill="#f2f0f0" fill-rule="evenodd"></path></g></svg>