<svg version="1.2" xmlns="http://www.w3.org/2000/svg" viewBox="0 0 750 156" width="750" height="156">
	<title>FTM_DMNS_FNL-ai</title>
	<style>
		.s0 { fill: #ffffff }
		.s1 { fill: #606060 }
		.s2 { fill: #ffffff }
		.s3 { fill: #ffffff }
	</style>
	<g id="Layer 1">
		<path id="&lt;Path&gt;" class="s0" d="m6.2 167.5h759.8v187.5h-759.8z"/>
		<path id="&lt;Path&gt;" class="s1" d="m6.2 374.2h759.8v187.5h-759.8z"/>
		<path id="&lt;Path&gt;" class="s1" d="m999 374.2h776.9v187.5h-776.9z"/>
		<g id="&lt;Group&gt;">
			<path id="&lt;Path&gt;" class="s0" d="m123.8 138.2l-15.4 9-54.5-31.5v-16.7-1.2-15.6l15.7 9.2v15.5l36.1 20.8 12.7 7.3z"/>
			<path id="&lt;Path&gt;" class="s0" d="m162.3 82.3v15.5 1.2 0.1 16.5l-35.9 21-15.5-8.9 30.1-17.6 2.8-1.6q0.5-0.3 0.9-0.5l1.9-1.1v-15.5-0.1z"/>
			<path id="&lt;Path&gt;" class="s0" d="m108.1 31l-35.9 20.7v-17.9l36-20.8 35.8 21v17.7q-0.1 0-0.2-0.1l-23.6-13.6z"/>
			<path id="&lt;Path&gt;" class="s0" d="m105.3 90.8l-15.5 8.9-17.6-10.3-0.6-0.4-0.7-0.4-1.3-0.7-15.7-9.2v-1.2-15.2-1.6-0.1-16.2l15.7-9.1v16.2 1.8 16.6l1.1 0.7q0.1 0 0.2 0.1 0.7 0.4 1.3 0.8 0.1 0 0.2 0.1l2.8 1.6 9.8 5.7 1.3 0.8 1.3 0.8z"/>
			<path id="&lt;Path&gt;" class="s0" d="m162.3 44.7v16.2 1.8 15 1.1l-15.7 9.1-1.3 0.7-1.3 0.8-36.2 20.9-15.4-9.1 36.1-20.8 1.3-0.7 1.3-0.8 12.9-7.4 1.3-0.8 1.3-0.8v-16.4-1.8-16.2z"/>
			<path id="&lt;Path&gt;" class="s0" d="m162.7 33.2l10.4 6.9v11.8l-4.7 1.2v-11.3l-9.2-5.4z"/>
			<path id="&lt;Path&gt;" class="s0" d="m54.5 127.2l-10.3-6.9v-11.8l4.7-1.3v11.4l9.2 5.4z"/>
		</g>
		<g id="&lt;Group&gt;">
			<path id="&lt;Compound Path&gt;" class="s2" d="m211 58.3c-5.5 0-8.8 0.4-10 1.3-1.7 1.2-2.5 4.5-2.4 9.7h11.5v6.7h-11.5v31.6h-7.1v-41.9c0-4 1.1-7.3 3.2-9.9 2.4-2.8 5.6-4.2 9.5-4.2h6.8z"/>
			<path id="&lt;Compound Path&gt;" class="s2" d="m250.8 107.6h-7.2v-22.1c0-3.4-1.3-6-3.9-7.8-2.3-1.7-5.3-2.5-8.7-2.5-7.7 0-12.5 5.3-12.5 12.9 0 3.8 1.1 7 3.4 9.5q3.5 4.1 9.1 4.1c3.7 0 7-1.8 9.8-5.4v8.5c-2.2 1.4-3.8 2.3-4.9 2.7-1.5 0.6-3.4 0.9-5.5 0.9-5.6 0-10.1-2-13.7-6.1-3.5-3.9-5.3-8.6-5.3-14.2q0-9.1 5.5-14.4 5.5-5.2 14.6-5.2c5.6 0 10 1.5 13.6 4.5 3.8 3.3 5.7 7.6 5.7 13z"/>
			<path id="&lt;Compound Path&gt;" class="s2" d="m290.4 107.6h-7v-22.6c0-5.5-3.9-10-9.4-10-2.5 0-4.8 1-6.6 2.8-1.8 1.9-2.7 4-2.7 6.6v23.2h-7.2v-23.4c0-4.5 1.6-8.3 4.8-11.3q4.9-4.6 11.7-4.6c4.7 0 8.6 1.6 11.7 4.8 3.1 3.2 4.7 7.1 4.7 11.7z"/>
			<path id="&lt;Compound Path&gt;" class="s2" d="m319.2 107.6h-8.8c-7.7 0-11.9-4.3-11.9-12v-36.1h7v9.8h13.7v6.7h-13.7v21c0 1.3 0.5 2.2 1.7 2.9q1.3 1 3.3 1h8.7z"/>
			<path id="&lt;Compound Path&gt;" fill-rule="evenodd" class="s2" d="m357.2 102.2c-3.6 4.1-8.1 6.2-13.5 6.2q-8.9 0-15.1-5.5c-4.2-3.8-6.3-8.6-6.3-14.6l0.2-0.3c0-5.4 1.9-10 5.8-13.8 3.9-3.8 8.6-5.7 14-5.7 5.7 0 10.5 1.8 14.3 5.6 3.9 3.7 5.8 8.3 5.8 14 0 5.5-1.7 10.2-5.2 14.1zm-14.7-27q-5.6 0-9.1 3.6c-2.4 2.3-3.6 5.3-3.6 9 0 4.2 1.2 7.5 3.3 10 2.3 2.6 5.5 3.9 9.7 3.9 8.1 0 12.2-4.7 12.2-14.2 0-7.4-5.1-12.3-12.5-12.3z"/>
			<path id="&lt;Compound Path&gt;" class="s2" d="m418.6 107.6h-7v-24.2c0-2.4-0.6-4.3-1.6-5.7-1.2-1.7-3-2.5-5.3-2.5-5 0-7.5 2.7-7.5 8.2v24.2h-7.2v-23.7c0-2.5-0.5-4.6-1.6-6.1q-1.9-2.6-5.5-2.6c-4.8 0-7.1 3-7.1 9.2v23.2h-7.1v-26.4c0-3.8 1.5-6.9 4.4-9.4 2.7-2.2 6.1-3.3 10-3.3 4.1 0 7.7 1.8 10.5 5.4 2.6-3.6 6.4-5.4 11.6-5.4 3.6 0 6.8 1.3 9.4 3.7 2.7 2.5 4 5.5 4 9z"/>
			<path id="&lt;Compound Path&gt;" class="s2" d="m486 89.2c0 5.4-2 10-5.9 13.8-3.9 3.7-8.5 5.6-13.9 5.6-5.6 0-10.2-1.9-13.9-5.5-3.6-3.6-5.5-8.2-5.5-13.8 0-5.3 1.6-10 4.7-14 3.4-4.4 7.6-6.7 12.8-6.7 5.3 0 9.3 0.9 11.9 2.7v7.5c-3.4-2.3-6.8-3.5-10.1-3.5-7.4 0-12.3 5.5-12.3 13 0 4 1.1 7.2 3.4 9.6 2.3 2.7 5.5 3.9 9.4 3.9 4.1 0 7.3-1.6 9.5-4.8 1.9-2.8 2.9-6.3 2.9-10.6v-34.6h7z"/>
			<path id="&lt;Compound Path&gt;" fill-rule="evenodd" class="s2" d="m526 102.2c-3.6 4.1-8.1 6.2-13.5 6.2q-9 0-15.1-5.5c-4.2-3.8-6.3-8.6-6.3-14.6l0.2-0.3c0-5.4 1.9-10 5.8-13.8 3.9-3.8 8.6-5.7 14-5.7 5.7 0 10.4 1.8 14.3 5.6 3.9 3.7 5.8 8.3 5.8 14 0 5.5-1.7 10.2-5.2 14.1zm-14.8-27q-5.5 0-9.1 3.6c-2.3 2.3-3.5 5.3-3.5 9 0 4.2 1.2 7.5 3.3 10 2.3 2.6 5.5 3.9 9.7 3.9 8.1 0 12.2-4.7 12.2-14.2 0-7.4-5.1-12.3-12.6-12.3z"/>
			<path id="&lt;Compound Path&gt;" class="s2" d="m587.4 107.6h-7v-24.2c0-2.4-0.6-4.3-1.6-5.7-1.2-1.7-3-2.5-5.3-2.5-5 0-7.5 2.7-7.5 8.2v24.2h-7.2v-23.7c0-2.5-0.5-4.6-1.6-6.1q-1.9-2.6-5.5-2.6c-4.8 0-7.2 3-7.2 9.2v23.2h-7v-26.4c0-3.8 1.5-6.9 4.4-9.4 2.7-2.2 6.1-3.3 10-3.3 4.1 0 7.7 1.8 10.5 5.4 2.6-3.6 6.4-5.4 11.6-5.4 3.6 0 6.8 1.3 9.4 3.7 2.7 2.5 4 5.5 4 9z"/>
			<path id="&lt;Compound Path&gt;" class="s2" d="m632.7 107.6h-7.2v-22.1c0-3.4-1.3-6-3.9-7.8-2.3-1.7-5.3-2.5-8.7-2.5-7.7 0-12.5 5.3-12.5 12.9 0 3.8 1.1 7 3.4 9.5q3.5 4.1 9.1 4.1c3.7 0 7-1.8 9.8-5.4v8.5c-2.2 1.4-3.8 2.3-4.9 2.7-1.5 0.6-3.4 0.9-5.5 0.9-5.6 0-10.1-2-13.7-6.1-3.5-3.9-5.3-8.6-5.3-14.2q0-9.1 5.5-14.4 5.5-5.2 14.6-5.2c5.6 0 10 1.5 13.6 4.5 3.8 3.3 5.7 7.6 5.7 13z"/>
			<path id="&lt;Compound Path&gt;" class="s2" d="m646.9 64.9c-2.4 0-4.2-1.9-4.2-4.2 0-2.4 1.8-4.3 4.2-4.3 2.3 0 4.2 1.9 4.2 4.3 0 2.3-1.9 4.2-4.2 4.2zm-3.6 4.4h7v38.3h-7z"/>
			<path id="&lt;Compound Path&gt;" class="s2" d="m694.4 107.6h-7v-22.6c0-5.5-3.9-10-9.4-10-2.5 0-4.7 1-6.6 2.8-1.8 1.9-2.7 4-2.7 6.6v23.2h-7.2v-23.4c0-4.5 1.6-8.3 4.8-11.3q4.9-4.6 11.7-4.6c4.7 0 8.6 1.6 11.7 4.8 3.1 3.2 4.7 7.1 4.7 11.7z"/>
			<path id="&lt;Compound Path&gt;" class="s2" d="m719.2 107.6h-19v-6.6c13 0 19.6 0.1 19.8 0.2 3-0.3 4.5-1.4 4.5-3.4 0-2.1-2.1-3.8-6.3-5.1-7.1-2.3-11-3.5-11.7-3.9-4.3-2.1-6.3-5.2-6.3-9.1 0-6.9 4.4-10.3 13.1-10.3h16.5v6.7h-17.9c-3 0-4.4 1.1-4.4 3.4 0 1.7 2.1 3.2 6.3 4.4 6.3 1.8 10.2 3.1 11.6 3.9 4.2 2.2 6.3 5.5 6.3 9.8 0 6.6-4.2 10-12.5 10z"/>
		</g>

	</g>
</svg>
